<?xml version="1.0" standalone="no"?>
<!DOCTYPE svg PUBLIC "-//W3C//DTD SVG 20010904//EN"
 "http://www.w3.org/TR/2001/REC-SVG-20010904/DTD/svg10.dtd">
<svg version="1.0" xmlns="http://www.w3.org/2000/svg"
 width="300.000000pt" height="300.000000pt" viewBox="0 0 300.000000 300.000000"
 preserveAspectRatio="xMidYMid meet">
<metadata>
Created by potrace 1.14, written by Peter Selinger 2001-2017
</metadata>
<g transform="translate(0.000000,300.000000) scale(0.100000,-0.100000)"
fill="#000000" stroke="none">
<path d="M1273 2513 c-4 -9 -28 -50 -55 -90 -26 -40 -48 -75 -48 -79 0 -3 -13
-24 -29 -47 -16 -23 -50 -77 -77 -120 -27 -42 -57 -90 -66 -105 -10 -15 -21
-34 -25 -42 -4 -8 -30 -51 -59 -95 -54 -83 -343 -546 -372 -596 -9 -15 -104
-167 -210 -336 -106 -169 -199 -317 -205 -327 -7 -11 -35 -56 -63 -100 -28
-45 -54 -87 -58 -93 -6 -10 52 -13 276 -12 l283 0 350 562 350 562 3 -220 2
-221 451 1 452 0 136 218 136 218 5 -218 5 -218 270 0 270 0 3 688 2 687 -267
0 -268 -1 -80 -130 c-44 -72 -98 -160 -120 -195 -22 -35 -130 -207 -240 -383
-109 -176 -201 -318 -204 -316 -2 3 -4 234 -4 515 l0 510 -269 0 c-244 0 -269
-2 -275 -17z"/>
</g>
</svg>
