<svg width="15" height="29" viewBox="0 0 15 29" fill="none" xmlns="http://www.w3.org/2000/svg">
<path class="arrow"
        d="M-0.000233717 20.9017C0.00859446 20.4959 0.169493 20.1083 0.450586 19.8156C0.738752 19.5278 1.12937 19.3661 1.53665 19.3661C1.94393 19.3661 2.33455 19.5278 2.62271 19.8156L7.49976 24.7541L12.3768 19.9385C12.6682 19.6671 13.0535 19.5193 13.4517 19.5263C13.8498 19.5333 14.2297 19.6946 14.5113 19.9762C14.7929 20.2578 14.9542 20.6377 14.9612 21.0358C14.9682 21.434 14.8204 21.8193 14.5489 22.1107L8.6473 27.9918C8.35914 28.2796 7.96851 28.4413 7.56124 28.4413C7.15396 28.4413 6.76334 28.2796 6.47517 27.9918L0.450586 21.9672C0.170809 21.6819 0.00969306 21.3011 -0.000233717 20.9017Z" fill="white"/>
<path
        class="circle"
        d="M6.25839e-07 7.5C6.90679e-07 6.01664 0.439868 4.56659 1.26398 3.33322C2.08809 2.09986 3.25943 1.13856 4.62987 0.570906C6.00032 0.00324898 7.50832 -0.145276 8.96318 0.144114C10.418 0.433503 11.7544 1.14781 12.8033 2.1967C13.8522 3.2456 14.5665 4.58197 14.8559 6.03682C15.1453 7.49168 14.9968 8.99968 14.4291 10.3701C13.8614 11.7406 12.9001 12.9119 11.6668 13.736C10.4334 14.5601 8.98336 15 7.5 15C5.51088 15 3.60322 14.2098 2.1967 12.8033C0.790176 11.3968 5.38892e-07 9.48912 6.25839e-07 7.5ZM11.9262 7.5C11.9262 6.62458 11.6666 5.76881 11.1803 5.04092C10.6939 4.31303 10.0026 3.74571 9.19384 3.4107C8.38506 3.07569 7.49509 2.98803 6.63648 3.15882C5.77788 3.32961 4.9892 3.75117 4.37018 4.37018C3.75116 4.9892 3.32961 5.77788 3.15882 6.63649C2.98803 7.49509 3.07569 8.38506 3.4107 9.19385C3.74571 10.0026 4.31303 10.6939 5.04092 11.1803C5.76881 11.6666 6.62457 11.9262 7.5 11.9262C8.67391 11.9262 9.79974 11.4599 10.6298 10.6298C11.4599 9.79974 11.9262 8.67391 11.9262 7.5Z" fill="white"/>
</svg>
