<svg width="28" height="31" viewBox="0 0 28 31" fill="none" xmlns="http://www.w3.org/2000/svg">
<path d="M12.8918 1.73599L12.854 16.1746L14.5594 16.1791L14.5972 1.74046L12.8918 1.73599Z" fill="white"/>
<path d="M17.5792 8.01987L13.7564 3.33014L9.80564 8.01987L8.45557 6.98245L13.7564 0.615784L18.9009 6.93981L17.5792 8.01987Z" fill="white"/>
<path d="M10.3668 18.9986L0.182129 29.2332L1.39094 30.4361L11.5756 20.2015L10.3668 18.9986Z" fill="white"/>
<path d="M0 30.6158L0.738988 22.3732L2.43013 22.6006L1.91853 28.7115L7.9299 28.0862L8.10044 29.7915L0 30.6158Z" fill="white"/>
<path d="M17.069 18.9929L15.8604 20.196L26.0468 30.4289L27.2554 29.2257L17.069 18.9929Z" fill="white"/>
<path d="M27.442 30.6158L19.3274 29.7915L19.4979 28.0862L25.5235 28.7115L25.0119 22.6006L26.7031 22.3732L27.442 30.6158Z" fill="white"/>
</svg>
