<svg width="36" height="39" viewBox="0 0 36 39" fill="none" xmlns="http://www.w3.org/2000/svg">
<path d="M12.859 7.78076L14.4751 10.5798C13.9323 10.3709 13.3381 10.3354 12.7743 10.4782C12.2105 10.6209 11.7048 10.935 11.3269 11.377C10.949 11.8191 10.7174 12.3675 10.664 12.9466C10.6106 13.5258 10.7381 14.1072 11.0289 14.6109L9.77891 12.4458C9.45799 11.888 8.95474 11.4577 8.35381 11.2273L7.98768 10.5933C7.80285 10.2734 7.68284 9.92025 7.63452 9.554C7.58619 9.18774 7.6105 8.81555 7.70605 8.45869C7.8016 8.10183 7.96651 7.76729 8.19138 7.47418C8.41625 7.18107 8.69666 6.93513 9.01659 6.75042C9.33653 6.5657 9.68972 6.44583 10.056 6.39764C10.4223 6.34945 10.7944 6.3739 11.1513 6.46958C11.5081 6.56526 11.8426 6.7303 12.1356 6.95528C12.4286 7.18025 12.6745 7.46076 12.859 7.78076ZM30.5706 15.9581L27.9144 11.3573C27.5414 10.7113 26.9271 10.2399 26.2066 10.0469C25.4861 9.85379 24.7184 9.95485 24.0724 10.3278C23.4264 10.7008 22.955 11.315 22.762 12.0356C22.5689 12.7561 22.67 13.5237 23.0429 14.1697L18.9805 7.13332C18.6072 6.4879 17.993 6.0171 17.2727 5.82439C16.5525 5.63168 15.7852 5.73283 15.1395 6.10561C14.4939 6.4784 14.0226 7.09231 13.8294 7.81241C13.6361 8.53251 13.7367 9.29987 14.109 9.94583L14.4751 10.5798L14.4753 10.5801L14.4753 10.5799C15.0762 10.8103 15.5794 11.2406 15.9004 11.7984L19.9629 18.8348C19.6721 18.3312 19.5446 17.7497 19.5979 17.1706C19.6513 16.5914 19.8829 16.0431 20.2608 15.601C20.6387 15.1589 21.1444 14.8449 21.7082 14.7021C22.272 14.5594 22.8662 14.5949 23.409 14.8038L23.4092 14.8042L23.4093 14.8039C24.0101 15.0343 24.5133 15.4646 24.8342 16.0223L27.4905 20.6231C28.2981 22.0186 28.7957 23.5717 28.9493 25.1767C29.1028 26.7817 28.9088 28.4009 28.3804 29.9242C30.2865 28.1971 31.5435 25.8691 31.942 23.328C32.3405 20.7868 31.8565 18.1858 30.5706 15.9581Z" fill="white"/>
<path d="M28.7263 10.8885C28.3977 10.3179 27.9244 9.84407 27.3543 9.51466C26.7841 9.18525 26.1372 9.01193 25.4787 9.01217C24.8203 9.01241 24.1735 9.1862 23.6036 9.51603C23.0337 9.84585 22.5608 10.3201 22.2325 10.8909L19.7925 6.66457C19.4606 6.08813 18.9812 5.61046 18.4036 5.28067C17.8259 4.95087 17.1709 4.78085 16.5058 4.78807C15.8406 4.7953 15.1894 4.97951 14.6191 5.32178C14.0488 5.66404 13.5799 6.15201 13.2606 6.73553C12.7063 6.09434 11.9513 5.65979 11.1185 5.5027C10.2856 5.34561 9.42415 5.47525 8.67444 5.87048C7.92472 6.26572 7.33099 6.90324 6.99002 7.67914C6.64904 8.45504 6.58094 9.32355 6.7968 10.1431C6.19136 10.2318 5.61685 10.4674 5.12346 10.8293C4.63006 11.1912 4.23278 11.6684 3.96634 12.2192C3.69989 12.7701 3.57238 13.3778 3.59494 13.9892C3.6175 14.6007 3.78945 15.1974 4.09576 15.7271L4.66057 16.7054C4.00212 16.7044 3.35505 16.877 2.78453 17.2057C2.21401 17.5345 1.74018 18.0077 1.41078 18.5779C1.08138 19.148 0.908035 19.7949 0.908203 20.4533C0.908371 21.1117 1.08205 21.7585 1.41174 22.3285L7.19299 32.3419C8.35111 34.3483 10.0571 35.9831 12.1112 37.0545C14.1652 38.126 16.482 38.5897 18.7902 38.3914C21.0984 38.1932 23.3022 37.3411 25.1434 35.935C26.9846 34.529 28.3868 32.6273 29.1858 30.4527C31.1745 28.5647 32.4719 26.0638 32.8702 23.3507C33.2685 20.6376 32.7447 17.8693 31.3826 15.4893L28.7263 10.8885ZM14.7337 8.05419C14.8297 7.69599 15.0298 7.37429 15.3086 7.12979C15.5874 6.88528 15.9325 6.72894 16.3001 6.68055C16.6678 6.63216 17.0416 6.69388 17.3742 6.85791C17.7067 7.02194 17.9832 7.28091 18.1686 7.60207L21.7136 13.7422C21.1807 13.8406 20.6756 14.0539 20.2333 14.3671C19.7911 14.6803 19.4222 15.086 19.1524 15.556L16.7123 11.3296C16.3447 10.6914 15.7962 10.1763 15.136 9.84954L14.922 9.47894L14.9211 9.47707C14.7974 9.26406 14.7171 9.02863 14.6849 8.78439C14.6528 8.54016 14.6694 8.29198 14.7337 8.05419ZM8.61236 8.70178C8.70835 8.34358 8.9084 8.02189 9.1872 7.77738C9.46601 7.53288 9.81106 7.37653 10.1787 7.32813C10.5464 7.27972 10.9201 7.34141 11.2527 7.50542C11.5853 7.66942 11.8618 7.92836 12.0473 8.2495L12.7797 9.51823C12.2338 9.61922 11.7173 9.84036 11.2675 10.1656C10.8177 10.4909 10.4459 10.9122 10.179 11.399C9.85474 11.0239 9.45897 10.7173 9.01481 10.4971L8.79959 10.1245C8.67584 9.91152 8.59558 9.67611 8.56344 9.4319C8.5313 9.18768 8.54793 8.93952 8.61236 8.70178ZM22.904 35.179C20.5347 36.5433 17.7209 36.9121 15.08 36.2045C12.439 35.4969 10.1866 33.7706 8.81683 31.4044L3.03558 21.391C2.78694 20.9603 2.71957 20.4485 2.84828 19.9682C2.97699 19.4878 3.29125 19.0783 3.72192 18.8296C4.15259 18.581 4.66439 18.5136 5.14474 18.6423C5.62508 18.7711 6.03462 19.0853 6.28326 19.516L6.28342 19.5162L10.0333 26.0112C10.0948 26.1179 10.1767 26.2114 10.2744 26.2864C10.3721 26.3614 10.4836 26.4165 10.6025 26.4484C10.7215 26.4803 10.8456 26.4884 10.9677 26.4724C11.0898 26.4563 11.2075 26.4164 11.3142 26.3548C11.4208 26.2932 11.5143 26.2112 11.5893 26.1135C11.6642 26.0158 11.7192 25.9043 11.7511 25.7853C11.7829 25.6663 11.791 25.5422 11.7749 25.4201C11.7588 25.298 11.7187 25.1803 11.6571 25.0737L5.7196 14.7896C5.59649 14.5763 5.51658 14.3409 5.48444 14.0968C5.4523 13.8527 5.46855 13.6046 5.53228 13.3668C5.596 13.129 5.70595 12.906 5.85584 12.7107C6.00573 12.5153 6.19263 12.3514 6.40586 12.2283C6.6191 12.1052 6.8545 12.0253 7.09862 11.9931C7.34273 11.961 7.59079 11.9773 7.82863 12.041C8.06646 12.1047 8.28942 12.2147 8.48476 12.3645C8.68011 12.5144 8.84401 12.7013 8.96713 12.9146L14.9046 23.1987C15.029 23.4139 15.2338 23.5709 15.4739 23.6351C15.714 23.6994 15.9698 23.6657 16.185 23.5414C16.4003 23.4172 16.5574 23.2125 16.6218 22.9724C16.6862 22.7323 16.6526 22.4765 16.5285 22.2612L11.841 14.1422C11.7179 13.929 11.6379 13.6935 11.6058 13.4494C11.5737 13.2053 11.5899 12.9572 11.6536 12.7194C11.7174 12.4815 11.8273 12.2586 11.9772 12.0632C12.1271 11.8679 12.314 11.704 12.5272 11.5809C12.7405 11.4578 12.9759 11.3779 13.22 11.3457C13.4641 11.3136 13.7122 11.3298 13.95 11.3936C14.1878 11.4573 14.4108 11.5672 14.6061 11.7171C14.8015 11.867 14.9654 12.0539 15.0885 12.2671L21.651 23.6337C21.7754 23.8489 21.9801 24.0059 22.2202 24.0702C22.4604 24.1344 22.7162 24.1007 22.9314 23.9765C23.1467 23.8522 23.3038 23.6475 23.3682 23.4074C23.4326 23.1674 23.399 22.9115 23.2748 22.6962L20.7749 18.3662C20.5263 17.9355 20.4588 17.4236 20.5875 16.9433C20.7162 16.463 21.0305 16.0535 21.4611 15.8048C21.8917 15.5562 22.4035 15.4888 22.8839 15.6175C23.3642 15.7462 23.7737 16.0604 24.0224 16.4911L26.6786 21.0919C27.3558 22.2647 27.7953 23.5594 27.972 24.9021C28.1488 26.2447 28.0594 27.6091 27.7089 28.9172C27.3584 30.2253 26.7537 31.4516 25.9293 32.526C25.1048 33.6004 24.0769 34.5019 22.904 35.179ZM29.9386 26.4054C29.9693 24.212 29.4038 22.0515 28.3025 20.1544L25.6462 15.5536C25.2785 14.9154 24.7301 14.4005 24.0701 14.0737L23.8551 13.7011C23.7319 13.4879 23.652 13.2524 23.6198 13.0083C23.5877 12.7641 23.6039 12.5161 23.6677 12.2782C23.7964 11.7979 24.1106 11.3884 24.5412 11.1397C24.7545 11.0166 24.9899 10.9367 25.234 10.9046C25.4781 10.8724 25.7262 10.8887 25.964 10.9524C26.4443 11.0811 26.8539 11.3954 27.1025 11.826L29.7588 16.4268C30.6253 17.9409 31.096 19.6489 31.1274 21.3931C31.1589 23.1373 30.75 24.8612 29.9386 26.4054ZM25.0792 3.93325L25.7263 1.51855C25.7909 1.27859 25.948 1.07407 26.1633 0.949931C26.3785 0.825787 26.6343 0.792174 26.8743 0.856477C27.1143 0.92078 27.319 1.07774 27.4434 1.29287C27.5677 1.50799 27.6016 1.76369 27.5375 2.00378L26.8904 4.41848C26.8259 4.65844 26.6687 4.86296 26.4534 4.9871C26.2382 5.11125 25.9825 5.14486 25.7424 5.08056C25.5024 5.01625 25.2977 4.8593 25.1734 4.64417C25.049 4.42904 25.0151 4.17334 25.0792 3.93325ZM29.1513 5.47287L30.5853 3.42498C30.7279 3.2213 30.9456 3.08262 31.1905 3.03944C31.4353 2.99626 31.6873 3.05212 31.891 3.19473C32.0947 3.33734 32.2334 3.55502 32.2766 3.79989C32.3197 4.04475 32.2639 4.29674 32.1213 4.50042L30.6873 6.5483C30.5446 6.75198 30.327 6.89067 30.0821 6.93385C29.8372 6.97703 29.5852 6.92117 29.3816 6.77856C29.1779 6.63595 29.0392 6.41827 28.996 6.1734C28.9528 5.92854 29.0087 5.67655 29.1513 5.47287ZM35.5746 8.4143L33.5268 9.84832C33.4259 9.91893 33.3121 9.96899 33.1919 9.99564C33.0717 10.0223 32.9475 10.025 32.8262 10.0036C32.705 9.98223 32.5891 9.93718 32.4853 9.87102C32.3815 9.80487 32.2917 9.71892 32.2211 9.61806C32.1505 9.51721 32.1004 9.40344 32.0737 9.28324C32.0471 9.16304 32.0444 9.03878 32.0658 8.91753C32.0872 8.79629 32.1322 8.68044 32.1984 8.57661C32.2645 8.47277 32.3505 8.38298 32.4513 8.31237L34.4992 6.87835C34.7029 6.73574 34.9549 6.67988 35.1997 6.72306C35.4446 6.76624 35.6623 6.90492 35.8049 7.1086C35.9475 7.31228 36.0034 7.56427 35.9602 7.80914C35.917 8.054 35.7783 8.27169 35.5746 8.4143Z" fill="#213067"/>
</svg>
