<svg width="30" height="30" viewBox="0 0 30 30" fill="none" xmlns="http://www.w3.org/2000/svg">
<path d="M14.1792 11.7622H14.2051L15.0194 12.7445L15.8208 11.7493H15.8595V11.6976L19.3236 7.44509L18.0181 6.37228L15.8595 9.022L15.8337 0L14.1405 0.0129258L14.1663 9.04785L11.9302 6.3852L10.5859 7.41924L14.1663 11.7234L14.1792 11.7622Z" fill="white"/>
<path d="M11.7493 15.7691V15.7432L12.7316 14.9289L11.7493 14.1276V14.0759H11.6976L7.44509 10.6118L6.37228 11.9302L9.022 14.0888L0 14.1017V15.8079L9.03493 15.782L6.3852 18.0181L7.40631 19.3624L11.7234 15.7691H11.7493Z" fill="white"/>
<path d="M29.9743 15.8597V14.1664L20.9394 14.1923L23.5891 11.9433L22.568 10.599L18.2509 14.1923H18.2121V14.2181L17.2297 15.0454L18.225 15.8468V15.8855H18.2767L22.5292 19.3496L23.602 18.0312L20.9523 15.8855L29.9743 15.8597Z" fill="white"/>
<path d="M15.7562 18.2378H15.7174L14.9031 17.2554L14.1017 18.2507H14.0629V18.3024L10.5989 22.5549L11.9044 23.6277L14.0629 20.978L14.0888 30L15.782 29.9871L15.7562 20.9651L18.0052 23.6148L19.3494 22.5807L15.7562 18.2765V18.2378Z" fill="white"/>
</svg>
