<svg width="22" height="23" viewBox="0 0 22 23" fill="none" xmlns="http://www.w3.org/2000/svg">
<path d="M0.25293 22.4052L1.76991 16.8549C0.83781 15.2266 0.348321 13.38 0.350718 11.5008C0.339928 5.57927 5.11755 0.770416 10.9893 0.770416C13.8391 0.770416 16.5149 1.88251 18.5297 3.91113C19.5229 4.90553 20.31 6.08841 20.8456 7.39123C21.3812 8.69405 21.6546 10.0909 21.65 11.5008C21.65 17.411 16.8724 22.2198 11.0001 22.2198C9.21259 22.2198 7.46827 21.7724 5.90811 20.9115L0.25293 22.4052ZM6.15766 18.9813L6.48277 19.1775C7.84738 19.9903 9.40368 20.4195 10.9893 20.4206C15.8646 20.4206 19.841 16.419 19.841 11.5111C19.841 9.13415 18.9203 6.88822 17.2514 5.20922C16.4309 4.37858 15.4551 3.71962 14.3803 3.27032C13.3055 2.82101 12.153 2.59024 10.9893 2.59131C6.10305 2.59195 2.12805 6.59358 2.12805 11.5015C2.12805 13.1805 2.59412 14.8276 3.48246 16.2452L3.6882 16.5832L2.78906 19.8761L6.15766 18.9813Z" fill="white"/>
<path fill-rule="evenodd" clip-rule="evenodd" d="M8.33446 7.0084C8.13952 6.56101 7.92298 6.55014 7.73884 6.55014C7.57628 6.53928 7.4023 6.53928 7.21816 6.53928C7.04544 6.53928 6.75271 6.60447 6.50379 6.87737C6.25425 7.14965 5.57227 7.79326 5.57227 9.11244C5.57227 10.4323 6.52539 11.708 6.65555 11.8825C6.78509 12.057 8.49701 14.8481 11.2058 15.9282C13.4588 16.8223 13.9141 16.6478 14.4017 16.5929C14.8888 16.5386 15.9727 15.9499 16.2 15.3172C16.4166 14.696 16.4166 14.1508 16.3518 14.0414C16.287 13.9328 16.1022 13.8669 15.8426 13.7251C15.5714 13.5946 14.2716 12.9402 14.0227 12.8527C13.7731 12.7657 13.5998 12.7222 13.4264 12.9837C13.2531 13.2566 12.7437 13.8561 12.5819 14.0306C12.4295 14.2051 12.2675 14.2268 12.0072 14.0958C11.7367 13.9654 10.8807 13.6816 9.86223 12.7657C9.07102 12.0563 8.54019 11.1736 8.37763 10.9123C8.2265 10.6393 8.35604 10.4974 8.49701 10.3664C8.61639 10.2469 8.76815 10.0507 8.89832 9.89792C9.02782 9.74453 9.07102 9.625 9.16882 9.45051C9.25523 9.27605 9.21203 9.11244 9.14722 8.98205C9.08188 8.86189 8.57321 7.54272 8.33446 7.0084Z" fill="white"/>
</svg>
