<svg width="16" height="15" viewBox="0 0 16 15" fill="none" xmlns="http://www.w3.org/2000/svg">
<path d="M15.6216 3.10974C15.3791 2.54831 15.0295 2.03954 14.5923 1.61193C14.1548 1.18303 13.6389 0.842198 13.0728 0.607954C12.4857 0.364094 11.8561 0.239272 11.2204 0.240735C10.3286 0.240735 9.45847 0.484945 8.70233 0.946229C8.52143 1.05658 8.34958 1.17778 8.18677 1.30983C8.02397 1.17778 7.85212 1.05658 7.67122 0.946229C6.91508 0.484945 6.04497 0.240735 5.15315 0.240735C4.51097 0.240735 3.88869 0.363745 3.30078 0.607954C2.73276 0.843119 2.22083 1.18139 1.78125 1.61193C1.34348 2.03906 0.99377 2.54795 0.751952 3.10974C0.500506 3.69404 0.37207 4.31451 0.37207 4.95307C0.37207 5.55546 0.49508 6.18317 0.739289 6.82173C0.943701 7.35537 1.23675 7.90891 1.61121 8.46788C2.20455 9.35246 3.02039 10.275 4.0334 11.2103C5.71212 12.7605 7.37455 13.8314 7.4451 13.8749L7.87382 14.1498C8.06377 14.271 8.30797 14.271 8.49791 14.1498L8.92664 13.8749C8.99719 13.8296 10.6578 12.7605 12.3383 11.2103C13.3514 10.275 14.1672 9.35246 14.7605 8.46788C15.135 7.90891 15.4298 7.35537 15.6324 6.82173C15.8767 6.18317 15.9997 5.55546 15.9997 4.95307C16.0015 4.31451 15.873 3.69404 15.6216 3.10974Z" fill="white"/>
</svg>
