<svg width="20" height="21" viewBox="0 0 20 21" fill="none" xmlns="http://www.w3.org/2000/svg">
<path fill-rule="evenodd" clip-rule="evenodd" d="M10.8719 0.5H9.12775C8.97272 0.5 8.8952 0.574074 8.8952 0.722222V9.44444H0.232558C0.0775194 9.44444 0 9.51851 0 9.66666V11.3333C0 11.4815 0.0775194 11.5555 0.232558 11.5555H8.8952V20.2778C8.8952 20.4259 8.97272 20.5 9.12775 20.5H10.8719C11.027 20.5 11.1045 20.4259 11.1045 20.2778V11.5555H19.7674C19.9225 11.5555 20 11.4815 20 11.3333V9.66666C20 9.51851 19.9225 9.44444 19.7674 9.44444H11.1045V0.722222C11.1045 0.574074 11.027 0.5 10.8719 0.5Z" fill="#525252"/>
</svg>
