<svg width="24" height="24" viewBox="0 0 24 24" fill="none" xmlns="http://www.w3.org/2000/svg">
<path d="M18.1729 5.84148H18.1861M6.68925 22.8346H17.3099C20.2427 22.8346 22.6203 20.457 22.6203 17.5242V6.90355C22.6203 3.97072 20.2427 1.5932 17.3099 1.5932H6.68925C3.75643 1.5932 1.37891 3.97072 1.37891 6.90355V17.5242C1.37891 20.457 3.75643 22.8346 6.68925 22.8346ZM16.978 12.2139C16.978 14.9635 14.7492 17.1923 11.9996 17.1923C9.25007 17.1923 7.02115 14.9635 7.02115 12.2139C7.02115 9.46437 9.25007 7.23544 11.9996 7.23544C14.7492 7.23544 16.978 9.46437 16.978 12.2139Z" stroke="white" stroke-width="1.51724" stroke-linecap="round" stroke-linejoin="round"/>
</svg>
