<svg width="54" height="54" viewBox="0 0 54 54" fill="none" xmlns="http://www.w3.org/2000/svg">
<path d="M9.45439 7.787H46.786C50.5782 7.787 53.2557 11.502 52.0566 15.0994L47.4269 28.9884C46.6707 31.2567 44.5477 32.787 42.1566 32.787H13.0258M9.45439 7.787L9.34217 7.00133C8.95117 4.26439 6.60717 2.23145 3.84245 2.23145H1.71631M9.45439 7.787L13.0258 32.787M13.0258 32.787L13.5349 36.3503C13.9259 39.0873 16.2699 41.1203 19.0346 41.1203H43.383M43.383 41.1203C40.3146 41.1203 37.8274 43.6076 37.8274 46.6759C37.8274 49.7442 40.3146 52.2314 43.383 52.2314C46.4513 52.2314 48.9385 49.7442 48.9385 46.6759C48.9385 43.6076 46.4513 41.1203 43.383 41.1203ZM26.7163 46.6759C26.7163 49.7442 24.2291 52.2314 21.1608 52.2314C18.0925 52.2314 15.6052 49.7442 15.6052 46.6759C15.6052 43.6076 18.0925 41.1203 21.1608 41.1203C24.2291 41.1203 26.7163 43.6076 26.7163 46.6759Z" stroke="white" stroke-width="3" stroke-linecap="round" stroke-linejoin="round"/>
</svg>
